<svg id="Layer_1" height="512" viewBox="0 0 512 512" width="512" xmlns="http://www.w3.org/2000/svg" data-name="Layer 1"><path d="m256 211.69a44.31 44.31 0 1 0 44.31 44.31 44.36 44.36 0 0 0 -44.31-44.31zm0 76.62a32.31 32.31 0 1 1 32.31-32.31 32.346 32.346 0 0 1 -32.31 32.31z"/><path d="m496 248.49h-.039l-62.708.395c-3.653-92.175-77.963-166.485-170.138-170.139l.395-62.708a6 6 0 0 0 -12-.076l-.395 62.7c-93.95 2.553-169.9 78.5-172.454 172.454l-62.7.395a6 6 0 0 0 .037 12h.039l62.708-.395c3.655 92.174 77.965 166.484 170.14 170.138l-.395 62.709a6 6 0 0 0 5.963 6.037h.038a6 6 0 0 0 6-5.962l.395-62.7c93.95-2.553 169.9-78.5 172.454-172.454l62.7-.395a6 6 0 0 0 -.037-12zm-74.752.47-31.834.2a133.776 133.776 0 0 0 -126.575-126.574l.2-31.835c85.618 3.604 154.606 72.592 158.21 158.209zm-94.676 12.6h.039l50.856-.32a121.743 121.743 0 0 1 -116.231 116.228l.307-48.756a6 6 0 0 0 -5.962-6.038h-.039a6 6 0 0 0 -6 5.962l-.307 48.76a121.755 121.755 0 0 1 -114.635-114.632l42.307-.266a6 6 0 1 0 -.076-12l-42.3.266a121.743 121.743 0 0 1 116.233-116.232l-.294 46.716a6 6 0 0 0 5.962 6.038h.039a6 6 0 0 0 6-5.962l.294-46.72a121.755 121.755 0 0 1 114.635 114.632l-50.86.32a6 6 0 0 0 .037 12zm-75.532-170.888-.2 31.849a133.752 133.752 0 0 0 -128.319 128.318l-31.849.2c2.584-87.272 73.096-157.783 160.368-160.367zm-160.289 172.368 31.834-.2a133.777 133.777 0 0 0 126.576 126.574l-.2 31.835c-85.618-3.604-154.606-72.592-158.21-158.209zm170.209 158.288.2-31.85a133.75 133.75 0 0 0 128.319-128.317l31.849-.2c-2.584 87.272-73.095 157.783-160.368 160.367z"/></svg>